<?xml version="1.0" encoding="UTF-8"?>
<svg version="1.1" xmlns="http://www.w3.org/2000/svg" width="58" height="60">
<path d="M0,0 L12,0 L14,4 L23,9 L30,10 L35,19 L33,23 L33,37 L35,41 L30,50 L24,50 L16,55 L14,56 L12,60 L0,60 L-2,56 L-13,50 L-18,50 L-23,41 L-21,36 L-21,23 L-23,19 L-18,10 L-11,9 L-2,4 Z M4,21 L4,39 L6,38 L6,32 L12,32 L13,31 L13,23 L11,21 Z M17,21 L17,39 L21,39 L21,21 Z M-6,22 L-10,34 L-10,39 L-8,36 L-2,35 L0,39 L-1,31 L-4,22 Z " fill="#FFFFFF" transform="translate(23,0)"/>
<path d="M0,0 L5,0 L6,1 L6,6 L5,7 L0,7 Z " fill="#FFFFFF" transform="translate(29,23)"/>
<path d="M0,0 L2,1 L3,7 L-1,7 Z " fill="#FFFFFF" transform="translate(17,26)"/>
</svg>
